<svg width="128" height="128" viewBox="0 0 128 128" fill="none" xmlns="http://www.w3.org/2000/svg">
<rect width="128" height="128" fill="white"/>
<path fill-rule="evenodd" clip-rule="evenodd" d="M49.1102 99.7923C69.9223 102.781 84.7402 100.075 95.8104 93.3177C128.297 73.4883 121.174 39.6772 107.442 30.227C81.3651 9.25204 77.5 28 64.179 21.5656L59.7701 18.6112C39.4656 3.6699 8.39276 14.1619 9.00903 48.9919C9.00903 74.5 27 91 49.1102 99.7923Z" fill="#00327B"/>
<path d="M16 38C16 32.4772 20.4772 28 26 28H102C107.523 28 112 32.4772 112 38V104H16V38Z" fill="#B7C6FF"/>
<path d="M112 47.5H71.29C70.3014 47.5 69.5 48.3014 69.5 49.29V85.71C69.5 86.6986 70.3014 87.5 71.29 87.5H112" stroke="white"/>
<rect x="22" y="47" width="41" height="41" rx="1.78998" fill="#00327B"/>
<path fill-rule="evenodd" clip-rule="evenodd" d="M46.9257 52.4822C45.7105 52.1675 44.4361 52 43.1225 52C34.7706 52 28 58.7706 28 67.1225C28 75.4744 34.7706 82.245 43.1225 82.245C50.5438 82.245 56.7165 76.8992 58 69.8483C56.1 69.1798 54.6964 67.4577 54.4905 65.3832C54.0037 65.5309 53.4872 65.6102 52.9521 65.6102C50.029 65.6102 47.6593 63.2405 47.6593 60.3174C47.6593 59.7283 47.7555 59.1618 47.9331 58.6325C46.8474 57.8036 46.147 56.4959 46.147 55.0245C46.147 54.0824 46.4341 53.2074 46.9257 52.4822ZM41.6103 62.5858C41.6103 63.421 40.9332 64.098 40.098 64.098C39.2628 64.098 38.5858 63.421 38.5858 62.5858C38.5858 61.7506 39.2628 61.0735 40.098 61.0735C40.9332 61.0735 41.6103 61.7506 41.6103 62.5858ZM37.0735 73.1715C37.9087 73.1715 38.5858 72.4945 38.5858 71.6593C38.5858 70.8241 37.9087 70.147 37.0735 70.147C36.2383 70.147 35.5613 70.8241 35.5613 71.6593C35.5613 72.4945 36.2383 73.1715 37.0735 73.1715ZM47.6593 73.1715C47.6593 74.0067 46.9822 74.6838 46.147 74.6838C45.3118 74.6838 44.6348 74.0067 44.6348 73.1715C44.6348 72.3363 45.3118 71.6593 46.147 71.6593C46.9822 71.6593 47.6593 72.3363 47.6593 73.1715Z" fill="white"/>
<circle cx="50.5" cy="55.5" r="1.5" fill="white"/>
<path d="M22 93C22 91.8954 22.8954 91 24 91H112V102C112 103.105 111.105 104 110 104H22V93Z" fill="#00327B" fill-opacity="0.1"/>
<rect x="27" y="94" width="92" height="21" rx="2" fill="#05E1BF"/>
<rect x="98" y="102" width="16" height="5" fill="white"/>
<path d="M16 38C16 35.2071 16 33.8107 16.3928 32.688C17.0964 30.6773 18.6773 29.0964 20.688 28.3928C21.8107 28 23.2071 28 26 28H102C104.793 28 106.189 28 107.312 28.3928C109.323 29.0964 110.904 30.6773 111.607 32.688C112 33.8107 112 35.2071 112 38V38H16V38Z" fill="white"/>
<circle cx="101.5" cy="26.5" r="18.5" fill="#4672FF"/>
<path fill-rule="evenodd" clip-rule="evenodd" d="M108 18H97V23V33.9306V38L108 23H104.548L108 18Z" fill="white"/>
<circle cx="23" cy="33" r="1" fill="#00327B"/>
<circle cx="27" cy="33" r="1" fill="#00327B"/>
<circle cx="31" cy="33" r="1" fill="#00327B"/>
<rect x="34" y="101" width="33" height="1" fill="white"/>
<rect x="34" y="107" width="54" height="1" fill="white"/>
<rect x="97" y="71" width="10" height="10" rx="1" fill="white"/>
<path d="M102 80L96 74L98 72L102 76L118 60L102 80Z" fill="#00327B"/>
<rect x="75" y="73" width="8" height="1" fill="white"/>
<rect x="75" y="78" width="17" height="1" fill="white"/>
<path d="M82.5117 62.9219C82.1953 63.3008 81.748 63.5957 81.1699 63.8066C80.5918 64.0137 79.9512 64.1172 79.248 64.1172C78.5098 64.1172 77.8613 63.957 77.3027 63.6367C76.748 63.3125 76.3184 62.8438 76.0137 62.2305C75.7129 61.6172 75.5586 60.8965 75.5508 60.0684V59.4883C75.5508 58.6367 75.6934 57.9004 75.9785 57.2793C76.2676 56.6543 76.6816 56.1777 77.2207 55.8496C77.7637 55.5176 78.3984 55.3516 79.125 55.3516C80.1367 55.3516 80.9277 55.5938 81.498 56.0781C82.0684 56.5586 82.4062 57.2598 82.5117 58.1816H80.8008C80.7227 57.6934 80.5488 57.3359 80.2793 57.1094C80.0137 56.8828 79.6465 56.7695 79.1777 56.7695C78.5801 56.7695 78.125 56.9941 77.8125 57.4434C77.5 57.8926 77.3418 58.5605 77.3379 59.4473V59.9922C77.3379 60.8867 77.5078 61.5625 77.8477 62.0195C78.1875 62.4766 78.6855 62.7051 79.3418 62.7051C80.002 62.7051 80.4727 62.5645 80.7539 62.2832V60.8125H79.1543V59.5176H82.5117V62.9219ZM83.9414 64V55.4688H86.5664C87.3164 55.4688 87.9863 55.6387 88.5762 55.9785C89.1699 56.3145 89.6328 56.7949 89.9648 57.4199C90.2969 58.041 90.4629 58.748 90.4629 59.541V59.9336C90.4629 60.7266 90.2988 61.4316 89.9707 62.0488C89.6465 62.666 89.1875 63.1445 88.5938 63.4844C88 63.8242 87.3301 63.9961 86.584 64H83.9414ZM85.6992 56.8926V62.5879H86.5488C87.2363 62.5879 87.7617 62.3633 88.125 61.9141C88.4883 61.4648 88.6738 60.8223 88.6816 59.9863V59.5352C88.6816 58.668 88.502 58.0117 88.1426 57.5664C87.7832 57.1172 87.2578 56.8926 86.5664 56.8926H85.6992ZM93.5039 60.9941V64H91.7461V55.4688H95.0742C95.7148 55.4688 96.2773 55.5859 96.7617 55.8203C97.25 56.0547 97.625 56.3887 97.8867 56.8223C98.1484 57.252 98.2793 57.7422 98.2793 58.293C98.2793 59.1289 97.9922 59.7891 97.418 60.2734C96.8477 60.7539 96.0566 60.9941 95.0449 60.9941H93.5039ZM93.5039 59.5703H95.0742C95.5391 59.5703 95.8926 59.4609 96.1348 59.2422C96.3809 59.0234 96.5039 58.7109 96.5039 58.3047C96.5039 57.8867 96.3809 57.5488 96.1348 57.291C95.8887 57.0332 95.5488 56.9004 95.1152 56.8926H93.5039V59.5703ZM102.65 60.877H101.25V64H99.4922V55.4688H102.662C103.67 55.4688 104.447 55.6934 104.994 56.1426C105.541 56.5918 105.814 57.2266 105.814 58.0469C105.814 58.6289 105.688 59.1152 105.434 59.5059C105.184 59.8926 104.803 60.2012 104.291 60.4316L106.137 63.918V64H104.25L102.65 60.877ZM101.25 59.4531H102.668C103.109 59.4531 103.451 59.3418 103.693 59.1191C103.936 58.8926 104.057 58.582 104.057 58.1875C104.057 57.7852 103.941 57.4688 103.711 57.2383C103.484 57.0078 103.135 56.8926 102.662 56.8926H101.25V59.4531Z" fill="#00327B"/>
</svg>
